<svg width="90" height="90" viewBox="0 0 48 48" fill="none" xmlns="http://www.w3.org/2000/svg">
<path fill-rule="evenodd" clip-rule="evenodd" d="M17.952 4H29.952C30.2172 4 30.4716 4.10536 30.6591 4.29289C30.8466 4.48043 30.952 4.73478 30.952 5V5.5H32V4H36V11H32V9.5H30.952V10C30.952 10.2652 30.8466 10.5196 30.6591 10.7071C30.4716 10.8946 30.2172 11 29.952 11H27.286V20.253L28.476 21.443V41.286C28.476 42.0816 28.1599 42.8447 27.5973 43.4073C27.0347 43.9699 26.2716 44.286 25.476 44.286H23.524C22.7284 44.286 21.9653 43.9699 21.4027 43.4073C20.8401 42.8447 20.524 42.0816 20.524 41.286V21.443L21.714 20.253V11H19.952C19.4216 11 18.9129 10.7893 18.5378 10.4142C18.1627 10.0391 17.952 9.53043 17.952 9V6C16.6343 6.01265 15.3748 6.54501 14.4475 7.48133C13.5201 8.41764 12.9999 9.68219 13 11H11C11 9.15177 11.7309 7.37853 13.0333 6.06715C14.3356 4.75576 16.1038 4.01267 17.952 4ZM28.952 6H19.952V9H28.952V6ZM23.714 11H25.286V21.08L26.476 22.271V41.286C26.476 41.5512 26.3706 41.8056 26.1831 41.9931C25.9956 42.1806 25.7412 42.286 25.476 42.286H23.524C23.2588 42.286 23.0044 42.1806 22.8169 41.9931C22.6294 41.8056 22.524 41.5512 22.524 41.286V22.27L23.714 21.08V11Z" fill="black"/>
</svg>
