<svg width="90" height="90" viewBox="0 0 20 20" fill="none" xmlns="http://www.w3.org/2000/svg">
<path d="M11.783 13.172L13.904 11.051L19.9 17.047L17.779 19.168L11.783 13.172ZM15.5 8C17.43 8 19 6.43 19 4.5C19 3.92 18.84 3.38 18.59 2.9L15.89 5.6L14.4 4.11L17.1 1.41C16.62 1.16 16.08 1 15.5 1C13.57 1 12 2.57 12 4.5C12 4.91 12.08 5.3 12.21 5.66L10.36 7.51L8.57998 5.73L9.28998 5.02L7.87998 3.61L9.99998 1.49C9.43747 0.928199 8.67498 0.61264 7.87998 0.61264C7.08497 0.61264 6.32248 0.928199 5.75998 1.49L2.21998 5.03L3.62998 6.44H0.809976L0.0999756 7.15L3.63998 10.69L4.34998 9.98V7.15L5.75998 8.56L6.46998 7.85L8.24998 9.63L0.839976 17.04L2.95998 19.16L14.34 7.79C14.7 7.92 15.09 8 15.5 8Z" fill="black"/>
</svg>
