<svg width="90" height="90" viewBox="0 0 32 32" fill="none" xmlns="http://www.w3.org/2000/svg">
<path d="M29.34 16.06C29.1469 15.9902 28.9369 15.9815 28.7387 16.0352C28.5404 16.0889 28.3635 16.2023 28.232 16.36L24.46 20.886L19.025 19.898L15.423 10.946C15.2071 10.3748 14.8227 9.88274 14.3206 9.53517C13.8185 9.1876 13.2226 9.00095 12.612 9H8.552C8.00839 9.00023 7.47506 9.14817 7.009 9.428L2 12.434V18.834L7 19.744V30H9V20.107L12.565 20.755L14 24.2V30H16V23.8L14.909 21.182L22.99 22.651L18.232 28.36C18.1104 28.506 18.0329 28.6836 18.0086 28.8721C17.9843 29.0605 18.0142 29.252 18.0948 29.4241C18.1753 29.5962 18.3033 29.7417 18.4636 29.8437C18.6239 29.9457 18.81 29.9999 19 30H29C29.2652 30 29.5196 29.8946 29.7071 29.7071C29.8946 29.5196 30 29.2652 30 29V17C29.9999 16.7945 29.9365 16.594 29.8184 16.4258C29.7003 16.2576 29.5333 16.1299 29.34 16.06ZM4 17.166V13.566L7 11.766V17.711L4 17.166ZM9 18.075V11H12.614C12.8212 11.0012 13.0231 11.0662 13.1921 11.1861C13.3612 11.3059 13.4892 11.4749 13.559 11.67L16.699 19.475L9 18.075ZM28 28H21.135L28 19.762V28ZM12.5 8C11.8078 8 11.1311 7.79473 10.5555 7.41015C9.97993 7.02556 9.53133 6.47894 9.26642 5.83939C9.00151 5.19985 8.9322 4.49612 9.06725 3.81719C9.2023 3.13825 9.53564 2.51461 10.0251 2.02513C10.5146 1.53564 11.1382 1.2023 11.8172 1.06725C12.4961 0.932205 13.1999 1.00152 13.8394 1.26642C14.4789 1.53133 15.0256 1.97993 15.4101 2.55551C15.7947 3.13108 16 3.80777 16 4.5C15.9989 5.42793 15.6299 6.31756 14.9737 6.97371C14.3176 7.62985 13.4279 7.99894 12.5 8ZM12.5 3C12.2033 3 11.9133 3.08798 11.6666 3.2528C11.42 3.41762 11.2277 3.65189 11.1142 3.92598C11.0006 4.20007 10.9709 4.50167 11.0288 4.79264C11.0867 5.08361 11.2296 5.35088 11.4393 5.56066C11.6491 5.77044 11.9164 5.9133 12.2074 5.97118C12.4983 6.02906 12.7999 5.99935 13.074 5.88582C13.3481 5.77229 13.5824 5.58003 13.7472 5.33336C13.912 5.08668 14 4.79667 14 4.5C14 4.10218 13.842 3.72065 13.5607 3.43934C13.2794 3.15804 12.8978 3 12.5 3Z" fill="black"/>
</svg>
